<svg xmlns="http://www.w3.org/2000/svg" viewBox="0 0 39.727 18.594"><g stroke="#000" stroke-linecap="round" stroke-linejoin="round"><g fill-opacity="0" stroke-width="0"><path fill="none" stroke-width=".20320000000000002" d="M23.622 4.548v2.54zM26.162 4.548v2.54l-2.54-1.27z"/><g fill="none" stroke-width="60"><path stroke-width=".1524" d="M23.622 5.818h-2.54M26.162 5.818h2.54M24.536 3.887v-1.27h.305l.178.076.127.102.076.127.051.254v.178l-.05.228-.077.127-.127.127-.178.051h-.305"/></g></g><g fill-opacity="0" stroke-width="0"><path fill="none" stroke-width=".1524" d="M2.032 15.978v1.27h1.27l-1.27 1.27-1.27-1.27h1.27z"/></g><g fill-opacity="0" stroke-width="0"><g fill="none" stroke-width="200"><path stroke-width=".508" d="M30.48 11.66h4.064zM30.48 10.136h4.064z"/></g><g fill="none" stroke-width="60"><path stroke-width=".1524" d="M32.512 9.882V7.088M32.512 11.914v2.794M36.5 11.38l-.051.076-.178.051h-.127l-.178-.05-.127-.128-.05-.127-.051-.228v-.178l.05-.254.051-.127.127-.102.178-.076h.127l.178.076.05.051M37.236 11.507l-.127-.05-.05-.077-.051-.101v-.381l.05-.102.051-.076.127-.051h.178l.127.05.051.077.076.102v.38l-.076.102-.05.076-.128.051h-.178M38.76 10.669v.838M38.202 10.669v.66l.076.127.101.051h.178l.127-.05.076-.077M39.167 10.669h.482M39.345 10.237v1.092l.076.127.127.051h.101"/></g></g><g fill-opacity="0" stroke-width="0"><g fill="none" stroke-width="200"><path stroke-width=".508" d="M0 11.66h4.064zM0 10.136h4.064z"/></g><g fill="none" stroke-width="60"><path stroke-width=".1524" d="M2.032 9.882V7.088M2.032 11.914v2.794M6.02 11.38l-.051.076-.178.051h-.127l-.178-.05-.127-.128-.05-.127-.051-.228v-.178l.05-.254.051-.127.127-.102.178-.076h.127l.178.076.05.051M6.579 11.507v-.838M6.579 10.237l-.051.076.05.051.051-.05-.05-.077v.127M7.188 10.669v.838M7.188 10.796l.051-.076.127-.051h.178l.127.05.05.128v.66"/></g></g><g fill-opacity="0" stroke-width="0"><circle cx="10000" cy="25850" r="1110" fill="none" stroke-width="100" transform="translate(-14.478 -58.952) scale(.00254)"/><g fill-opacity="1" stroke-width="60" transform="translate(-14.478 -58.952) scale(.00254)"><circle cx="10700" cy="25500" r="110"/><circle cx="9300" cy="25500" r="110"/></g><g fill="none" stroke-width="60"><path stroke-width=".1524" d="M10.922 8.307v-.203zM12.7 7.596V5.818z"/></g><path fill="none" stroke-width=".254" d="M12.192 7.596h1.016z"/><path fill="none" stroke-width=".1524" d="M10.922 7.596V5.818z"/><path fill="none" stroke-width=".254" d="M10.414 7.596h1.016z"/><path fill="none" stroke-width=".1524" d="M9.144 7.596V5.818z"/><path fill="none" stroke-width=".254" d="M8.636 7.596h1.016z"/><g fill="none" stroke-width="60"><path stroke-width=".1524" d="M12.7 5.818h.762zM12.7 5.818h-1.778zM8.382 5.818h.762z"/></g><path fill="none" stroke-width=".254" d="M9.017 8.104h3.81z"/><path fill-opacity="1" fill-rule="evenodd" stroke-width=".1524" d="M10.922 7.342l-.381-1.016h.762z"/><g fill="none" stroke-width="60"><path stroke-width=".1524" d="M12.7 5.818v-.762m0 0H9.144m0 0v.762m1.794 0H12.7M10.414 5.564l.127-.127v-.762l.127-.127"/><path stroke-width=".1524" d="M10.541 5.056l.635.38v-.761zM8.382 5.818h-2.54M10.922 8.358v5.08M13.462 5.818h2.54M11.405 2.617l-.127-.05-.127-.128-.178-.177-.127-.077h-.127"/><path stroke-width=".1524" d="M10.795 2.49l-.127-.05-.127-.128-.05-.254v-.406l.05-.254.127-.102.127-.076h.229l.127.076.127.102.05.254v.406l-.05.254-.127.127-.127.051h-.229"/></g></g><g fill-opacity="0" stroke-width="0"><g fill="none" stroke-width="60"><path stroke-width=".1524" d="M1.27 3.278l.762-1.27zM2.032 4.548v-2.54zM2.032 2.008l.762 1.27zM.711.077l.432 1.27.432-1.27M1.981 1.347V.51M1.981.077l-.05.076.05.051.076-.05-.076-.077v.127M2.59.509v.838M2.59.636L2.668.56l.102-.051h.177l.127.05.077.128v.66"/></g></g><g fill-opacity="0" stroke-width="0"><g fill="none" stroke-width="60"><path stroke-width=".1524" d="M31.75 4.548l.762-1.27zM32.512 5.818v-2.54zM32.512 3.278l.762 1.27zM30.556 1.347l.432 1.27.432-1.27M32.004 2.617l-.102-.05-.076-.077-.05-.101v-.381l.05-.102.076-.076.102-.051h.203l.102.05.076.077.05.102v.38l-.05.102-.076.076-.102.051h-.203M33.528 1.779v.838M32.995 1.779v.66l.05.127.127.051h.178l.127-.05.051-.077M33.96 1.779h.482M34.138 1.347V2.44l.05.127.127.051h.127"/></g></g><g fill-opacity="0" stroke-width="0"><g fill="none" stroke-width="60"><path stroke-width=".1524" d="M18.543 13.438a.635.635 0 000-1.27M18.543 12.168a.635.635 0 000-1.27M18.543 10.898a.635.635 0 000-1.27M18.543 9.628a.635.635 0 000-1.27M18.542 8.358v-1.27M18.542 13.438v1.27M21.438 11.507h-.61v-1.27"/></g></g><path fill="none" stroke-width=".152" d="M2.032 5.818v-1.27M18.542 14.708v1.27M2.032 15.978h16.51M18.542 7.088v-1.27M10.922 14.708v-1.27M16.002 5.818h2.54M18.542 15.978h13.97M2.032 5.818h3.81M2.032 7.088v-1.27M2.032 14.708v1.27M32.512 7.088v-1.27M32.512 14.708v1.27M28.702 5.818h3.81M18.542 5.818h2.54M6.96 14.377v-1.27h.482l.127.077.051.05.076.127v.178l-.076.127-.05.051-.128.05H6.96M8.103 13.107l.304 1.27.254-.914.229.914.305-1.27M9.677 14.377v-1.27l.432.915.432-.915v1.27"/><circle cx="13000" cy="29500" r="200" stroke-width="100" transform="translate(-14.478 -58.952) scale(.00254)"/><circle cx="13000" cy="25500" r="200" stroke-width="100" transform="translate(-14.478 -58.952) scale(.00254)"/><circle cx="18500" cy="25500" r="200" stroke-width="100" transform="translate(-14.478 -58.952) scale(.00254)"/><circle cx="6500" cy="25500" r="200" stroke-width="100" transform="translate(-14.478 -58.952) scale(.00254)"/><circle cx="6500" cy="29500" r="200" stroke-width="100" transform="translate(-14.478 -58.952) scale(.00254)"/></g></svg>