<svg xmlns="http://www.w3.org/2000/svg" viewBox="0 0 39.977 18.594"><g stroke="#000" stroke-linecap="round" stroke-linejoin="round"><g fill-opacity="0" stroke-width="0"><g fill="none" stroke-width="60"><path stroke-width=".1524" d="M32 4.548l.762-1.27zM32.762 5.818v-2.54zM32.762 3.278l.762 1.27zM30.807 1.347l.431 1.27.432-1.27M32.254 2.617l-.101-.05-.076-.077-.051-.101v-.381l.05-.102.077-.076.101-.051h.204l.101.05.076.077.051.102v.38l-.05.102-.077.076-.101.051h-.204M33.778 1.779v.838M33.245 1.779v.66l.05.127.128.051h.178l.127-.05.05-.077M34.21 1.779h.483M34.388 1.347V2.44l.05.127.128.051h.127"/></g></g><g fill-opacity="0" stroke-width="0"><path fill="none" stroke-width=".1524" d="M2.282 15.978v1.27h1.27l-1.27 1.27-1.27-1.27h1.27z"/></g><g fill-opacity="0" stroke-width="0"><path fill="none" stroke-width=".20320000000000002" d="M26.412 7.088v-2.54zM23.872 7.088v-2.54l2.54 1.27z"/><g fill="none" stroke-width="60"><path stroke-width=".1524" d="M26.412 5.818h2.54M23.872 5.818h-2.54M24.787 3.76V2.49h.305l.177.076.127.102.077.127.05.254v.178l-.05.228-.077.127-.127.127-.177.051h-.305"/></g></g><g fill-opacity="0" stroke-width="0"><g fill="none" stroke-width="60"><path stroke-width=".1524" d="M12.442 5.817a.635.635 0 00-1.27 0M11.172 5.817a.635.635 0 00-1.27 0M9.902 5.817a.635.635 0 00-1.27 0M8.632 5.817a.635.635 0 00-1.27 0M7.362 5.818h-1.27M12.442 5.818h1.27M10.283 3.786h-.61v-1.27"/></g></g><g fill-opacity="0" stroke-width="0"><circle cx="12150" cy="18500" r="1110" fill="none" stroke-width="100" transform="translate(-14.228 -36.092) scale(.00254)"/><g fill-opacity="1" stroke-width="60" transform="translate(-14.228 -36.092) scale(.00254)"><circle cx="12500" cy="19200" r="110"/><circle cx="12500" cy="17800" r="110"/></g><g fill="none" stroke-width="60"><path stroke-width=".1524" d="M15.033 10.898h.203zM15.744 12.676h1.778z"/></g><path fill="none" stroke-width=".254" d="M15.744 12.168v1.016z"/><path fill="none" stroke-width=".1524" d="M15.744 10.898h1.778z"/><path fill="none" stroke-width=".254" d="M15.744 10.39v1.016z"/><path fill="none" stroke-width=".1524" d="M15.744 9.12h1.778z"/><path fill="none" stroke-width=".254" d="M15.744 8.612v1.016z"/><g fill="none" stroke-width="60"><path stroke-width=".1524" d="M17.522 12.676v.762zM17.522 12.676v-1.778zM17.522 8.358v.762z"/></g><path fill="none" stroke-width=".254" d="M15.236 8.993v3.81h0z"/><path fill-opacity="1" fill-rule="evenodd" stroke-width=".1524" d="M15.998 10.898l1.016-.381v.762z"/><g fill="none" stroke-width="60"><path stroke-width=".1524" d="M17.522 12.676h.762v-1.52m0-.576V9.12h-.762"/><path stroke-width=".1524" d="M17.776 10.39l.127.127h.762l.127.127"/><path stroke-width=".1524" d="M18.284 10.517l-.38.635h.761zM17.522 8.358v-2.54M14.982 10.898h-5.08M17.522 13.438v2.54M21.434 11.634l-.127-.05-.127-.128-.178-.177-.127-.077h-.127"/><path stroke-width=".1524" d="M20.824 11.507l-.127-.05-.127-.128-.05-.254v-.406l.05-.254.127-.102.127-.076h.229l.127.076.127.102.05.254v.406l-.05.254-.127.127-.127.051h-.229"/></g></g><g fill-opacity="0" stroke-width="0"><g fill="none" stroke-width="200"><path stroke-width=".508" d="M.25 11.66h4.064zM.25 10.136h4.064z"/></g><g fill="none" stroke-width="60"><path stroke-width=".1524" d="M2.282 9.882V7.088M2.282 11.914v2.794M6.27 11.38l-.05.076-.178.051h-.127l-.178-.05-.127-.128-.051-.127-.05-.228v-.178l.05-.254.05-.127.128-.102.178-.076h.127l.177.076.051.051M6.829 11.507v-.838M6.829 10.237l-.05.076.05.051.05-.05-.05-.077v.127M7.439 10.669v.838M7.439 10.796l.05-.076.127-.051h.178l.127.05.051.128v.66"/></g></g><g fill-opacity="0" stroke-width="0"><g fill="none" stroke-width="60"><path stroke-width=".1524" d="M1.52 3.278l.762-1.27zM2.282 4.548v-2.54zM2.282 2.008l.762 1.27zM.962.077l.431 1.27.432-1.27M2.232 1.347V.51M2.232.077L2.18.153l.05.051.077-.05-.076-.077v.127M2.841.509v.838M2.841.636L2.917.56 3.02.509h.178l.127.05.076.128v.66"/></g></g><g fill-opacity="0" stroke-width="0"><g fill="none" stroke-width="200"><path stroke-width=".508" d="M30.73 11.66h4.064zM30.73 10.136h4.064z"/></g><g fill="none" stroke-width="60"><path stroke-width=".1524" d="M32.762 9.882V7.088M32.762 11.914v2.794M36.75 11.38l-.05.076-.178.051h-.127l-.178-.05-.127-.128-.051-.127-.05-.228v-.178l.05-.254.05-.127.128-.102.178-.076h.127l.177.076.051.051M37.487 11.507l-.127-.05-.051-.077-.05-.101v-.381l.05-.102.05-.076.128-.051h.178l.127.05.05.077.077.102v.38l-.077.102-.05.076-.127.051h-.178M39.01 10.669v.838M38.452 10.669v.66l.076.127.102.051h.178l.127-.05.076-.077M39.417 10.669h.483M39.595 10.237v1.092l.076.127.127.051h.102"/></g></g><path fill="none" stroke-width=".152" d="M2.282 15.978h15.24M2.282 14.708v1.27M17.522 15.978h15.24M8.632 10.898h1.27M32.762 7.088v-1.27M32.762 14.708v1.27M2.282 5.818v-1.27M2.282 7.088v-1.27M28.952 5.818h3.81M17.522 5.818h3.81M13.712 5.818h3.81M2.282 5.818h3.81M8.988 10.567v-1.27h.483l.127.077.076.05.05.127v.178l-.05.127-.076.051-.127.05h-.483M10.156 9.297l.305 1.27.229-.914.254.914.305-1.27M11.731 10.567v-1.27l.407.915.431-.915v1.27"/><circle cx="12500" cy="20500" r="200" stroke-width="100" transform="translate(-14.228 -36.092) scale(.00254)"/><circle cx="12500" cy="16500" r="200" stroke-width="100" transform="translate(-14.228 -36.092) scale(.00254)"/><circle cx="6500" cy="16500" r="200" stroke-width="100" transform="translate(-14.228 -36.092) scale(.00254)"/><circle cx="6500" cy="20500" r="200" stroke-width="100" transform="translate(-14.228 -36.092) scale(.00254)"/></g></svg>