<svg xmlns="http://www.w3.org/2000/svg" viewBox="0 0 23.6053 12.8507"><g stroke="#000" stroke-linecap="round" stroke-linejoin="round"><g fill-opacity="0" stroke-width="0"><g fill="none" stroke-width="60"><path stroke-width=".1524" d="M21.499 7.6708v1.27h1.27l-1.27 1.27-1.27-1.27h1.27M20.6353 11.4808l-.1016-.0762h-.1778l-.2032.0762-.1016.1016-.0762.127-.0508.254v.1778l.0508.2286.0762.127.1016.127.2032.0508h.1016l.1778-.0508.0762-.0762v-.4064h-.254M21.245 12.6746v-1.27l.7365 1.27v-1.27M22.5911 12.6746v-1.27h.3048l.1778.0762.1016.1016.0762.127.0508.254v.1778l-.0508.2286-.0762.127-.1016.127-.1778.0508h-.3048"/></g></g><g fill-opacity="0" stroke-width="0"><rect width="2000" height="800" x="11500" y="34600" fill="none" stroke-width="100" rx="0" transform="translate(-15.331 -82.4992) scale(.00254)"/><g fill="none" stroke-width="60"><path stroke-width=".1524" d="M13.879 6.4008h-1.27M18.959 6.4008h1.27M16.1903 3.9624l-.4064-.6096M15.4791 3.9624v-1.27h.4826l.1016.0762.0762.0508.0508.127v.1778l-.0508.127-.0762.0508-.1016.0508h-.4826M16.673 2.8194l.0761-.0508.1016-.0762h.3048l.127.0762.0508.0508.0762.127v.1016l-.0762.2032-.7112.7112h.7874"/></g></g><g fill-opacity="0" stroke-width="0"><rect width="2000" height="800" x="7500" y="34600" fill="none" stroke-width="100" rx="0" transform="translate(-15.331 -82.4992) scale(.00254)"/><g fill="none" stroke-width="60"><path stroke-width=".1524" d="M3.719 6.4008h-1.27M8.799 6.4008h1.27M6.0303 3.9624l-.4064-.6096M5.3191 3.9624v-1.27h.4826l.1016.0762.0762.0508.0508.127v.1778l-.0508.127-.0762.0508-.1016.0508h-.4826M7.2495 3.9624H6.513M6.894 3.9624v-1.27l-.127.1778-.127.127-.127.0508"/></g></g><g fill-opacity="0" stroke-width="0"><g fill="none" stroke-width="60"><path stroke-width=".1524" d="M.417 3.8608l.762-1.27M1.179 5.1308v-2.54M1.179 2.5908l.762 1.27M.2391.0762l.4318 1.27.4318-1.27M1.5091 1.3462V.508M1.5091.0762l-.0508.0762.0508.0508.0762-.0508-.0762-.0762v.127M2.1187.508v.8382M2.1187.635L2.195.5588 2.2965.508h.1778l.127.0508.0762.127v.6604"/></g></g><g fill="none" fill-opacity="0" stroke-width="60"><path stroke-width=".1524" d="M11.339 6.4008h1.27M11.339 6.4008v4.1149M11.3388 10.525h6.6859M20.229 6.4008h1.27M21.499 6.4008v1.27M2.449 6.4008h-1.27M1.179 6.4008v-1.27M10.069 6.4008h1.27M13.9353 8.9247l.4318 1.27.4318-1.27M15.4085 10.1947l-.127-.0508-.0762-.0762-.0508-.1016v-.381l.0508-.1016.0762-.0762.127-.0508h.1778l.1016.0508.0762.0762.0508.1016v.381l-.0508.1016-.0762.0762-.1016.0508h-.1778M16.907 9.3565v.8382M16.3737 9.3565v.6604l.0508.127.127.0508h.1778l.127-.0508.0508-.0762M17.3389 9.3565h.4826M17.5167 8.9247v1.0922l.0508.127.127.0508h.127"/></g><circle cx="10500" cy="35000" r="200" stroke-width="100" transform="translate(-15.331 -82.4992) scale(.00254)"/></g></svg>