<svg xmlns="http://www.w3.org/2000/svg" viewBox="0 0 39.977 18.594"><g stroke="#000" stroke-linecap="round" stroke-linejoin="round"><g fill-opacity="0" stroke-width="0"><g fill="none" stroke-width="60"><path stroke-width=".1524" d="M32 4.548l.762-1.27zM32.762 5.818v-2.54zM32.762 3.278l.762 1.27zM30.807 1.347l.431 1.27.432-1.27M32.254 2.617l-.101-.05-.076-.077-.051-.101v-.381l.05-.102.077-.076.101-.051h.204l.101.05.076.077.051.102v.38l-.05.102-.077.076-.101.051h-.204M33.778 1.779v.838M33.245 1.779v.66l.05.127.128.051h.178l.127-.05.05-.077M34.21 1.779h.483M34.388 1.347V2.44l.05.127.128.051h.127"/></g></g><g fill-opacity="0" stroke-width="0"><path fill="none" stroke-width=".20320000000000002" d="M27.682 9.628h-2.54zM27.682 12.168h-2.54l1.27-2.54z"/><g fill="none" stroke-width="60"><path stroke-width=".1524" d="M26.412 9.628v-2.54M26.412 12.168v2.54M28.597 11.507v-1.27h.305l.177.076.127.102.077.127.05.254v.178l-.05.228-.077.127-.127.127-.177.051h-.305"/></g></g><g fill-opacity="0" stroke-width="0"><path fill="none" stroke-width=".1524" d="M2.282 15.978v1.27h1.27l-1.27 1.27-1.27-1.27h1.27z"/></g><g fill-opacity="0" stroke-width="0"><g fill="none" stroke-width="200"><path stroke-width=".508" d="M30.73 11.66h4.064zM30.73 10.136h4.064z"/></g><g fill="none" stroke-width="60"><path stroke-width=".1524" d="M32.762 9.882V7.088M32.762 11.914v2.794M36.75 11.38l-.05.076-.178.051h-.127l-.178-.05-.127-.128-.051-.127-.05-.228v-.178l.05-.254.05-.127.128-.102.178-.076h.127l.177.076.051.051M37.487 11.507l-.127-.05-.051-.077-.05-.101v-.381l.05-.102.05-.076.128-.051h.178l.127.05.05.077.077.102v.38l-.077.102-.05.076-.127.051h-.178M39.01 10.669v.838M38.452 10.669v.66l.076.127.102.051h.178l.127-.05.076-.077M39.417 10.669h.483M39.595 10.237v1.092l.076.127.127.051h.102"/></g></g><g fill-opacity="0" stroke-width="0"><g fill="none" stroke-width="200"><path stroke-width=".508" d="M.25 11.66h4.064zM.25 10.136h4.064z"/></g><g fill="none" stroke-width="60"><path stroke-width=".1524" d="M2.282 9.882V7.088M2.282 11.914v2.794M6.27 11.38l-.05.076-.178.051h-.127l-.178-.05-.127-.128-.051-.127-.05-.228v-.178l.05-.254.05-.127.128-.102.178-.076h.127l.177.076.051.051M6.829 11.507v-.838M6.829 10.237l-.05.076.05.051.05-.05-.05-.077v.127M7.439 10.669v.838M7.439 10.796l.05-.076.127-.051h.178l.127.05.051.128v.66"/></g></g><g fill-opacity="0" stroke-width="0"><circle cx="10000" cy="8350" r="1110" fill="none" stroke-width="100" transform="translate(-14.228 -14.502) scale(.00254)"/><g fill-opacity="1" stroke-width="60" transform="translate(-14.228 -14.502) scale(.00254)"><circle cx="10700" cy="8000" r="110"/><circle cx="9300" cy="8000" r="110"/></g><g fill="none" stroke-width="60"><path stroke-width=".1524" d="M11.172 8.307v-.203zM12.95 7.596V5.818z"/></g><path fill="none" stroke-width=".254" d="M12.442 7.596h1.016z"/><path fill="none" stroke-width=".1524" d="M11.172 7.596V5.818z"/><path fill="none" stroke-width=".254" d="M10.664 7.596h1.016z"/><path fill="none" stroke-width=".1524" d="M9.394 7.596V5.818z"/><path fill="none" stroke-width=".254" d="M8.886 7.596h1.016z"/><g fill="none" stroke-width="60"><path stroke-width=".1524" d="M12.95 5.818h.762zM12.95 5.818h-1.778zM8.632 5.818h.762z"/></g><path fill="none" stroke-width=".254" d="M9.267 8.104h3.81z"/><path fill-opacity="1" fill-rule="evenodd" stroke-width=".1524" d="M11.172 7.342l-.38-1.016h.761z"/><g fill="none" stroke-width="60"><path stroke-width=".1524" d="M11.172 5.818h1.792l-.014-.762h-1.513m-.573 0h-1.47v.762"/><path stroke-width=".1524" d="M10.664 5.564l.127-.127v-.762l.127-.127"/><path stroke-width=".1524" d="M10.791 5.056l.635.38v-.761zM8.632 5.818h-2.54M11.172 8.358v5.08M13.712 5.818h2.54M11.655 2.617l-.127-.05-.127-.128-.178-.177-.127-.077h-.127"/><path stroke-width=".1524" d="M11.045 2.49l-.127-.05-.127-.128-.05-.254v-.406l.05-.254.127-.102.127-.076h.229l.127.076.127.102.05.254v.406l-.05.254-.127.127-.127.051h-.229"/></g></g><g fill-opacity="0" stroke-width="0"><g fill="none" stroke-width="60"><path stroke-width=".1524" d="M23.872 5.817a.635.635 0 00-1.27 0M22.602 5.817a.635.635 0 00-1.27 0M21.332 5.817a.635.635 0 00-1.27 0M20.062 5.817a.635.635 0 00-1.27 0M18.792 5.818h-1.27M23.872 5.818h1.27M21.713 3.786h-.61v-1.27"/></g></g><g fill-opacity="0" stroke-width="0"><g fill="none" stroke-width="60"><path stroke-width=".1524" d="M1.52 3.278l.762-1.27zM2.282 4.548v-2.54zM2.282 2.008l.762 1.27zM.962.077l.431 1.27.432-1.27M2.232 1.347V.51M2.232.077L2.18.153l.05.051.077-.05-.076-.077v.127M2.841.509v.838M2.841.636L2.917.56 3.02.509h.178l.127.05.076.128v.66"/></g></g><path fill="none" stroke-width=".152" d="M26.412 5.818h-1.27M26.412 5.818h6.35M26.412 15.978h6.35M26.412 14.708v1.27M11.172 14.708v-1.27M2.282 5.818h3.81M2.282 7.088v-1.27M2.282 14.708v1.27M32.762 7.088v-1.27M32.762 14.708v1.27M2.282 5.818v-1.27M2.282 15.978h24.13M26.412 7.088v-1.27M17.522 5.818h-1.27M7.21 14.377v-1.27h.483l.127.077.05.05.077.127v.178l-.077.127-.05.051-.127.05H7.21M8.353 13.107l.305 1.27.254-.914.228.914.305-1.27M9.928 14.377v-1.27l.432.915.431-.915v1.27"/><circle cx="16000" cy="12000" r="200" stroke-width="100" transform="translate(-14.228 -14.502) scale(.00254)"/><circle cx="16000" cy="8000" r="200" stroke-width="100" transform="translate(-14.228 -14.502) scale(.00254)"/><circle cx="6500" cy="8000" r="200" stroke-width="100" transform="translate(-14.228 -14.502) scale(.00254)"/><circle cx="6500" cy="12000" r="200" stroke-width="100" transform="translate(-14.228 -14.502) scale(.00254)"/></g></svg>